<svg width="22" height="16" viewBox="0 0 22 16" fill="none" xmlns="http://www.w3.org/2000/svg">
<path d="M1 0C0.447715 0 0 0.447715 0 1C0 1.55228 0.447715 2 1 2V0ZM21 2H22V0H21V2ZM6.82192 6.9863C6.26964 6.9863 5.82192 7.43402 5.82192 7.9863C5.82192 8.53859 6.26964 8.9863 6.82192 8.9863V6.9863ZM21 8.9863H22V6.9863H21V8.9863ZM1 13.9726C0.447715 13.9726 0 14.4203 0 14.9726C0 15.5249 0.447715 15.9726 1 15.9726V13.9726ZM21 15.9726H22V13.9726H21V15.9726ZM1 2H21V0H1V2ZM6.82192 8.9863H21V6.9863H6.82192V8.9863ZM1 15.9726H21V13.9726H1V15.9726Z" fill="#FCFAFF"/>
</svg>
